<svg width="1460" height="1460" viewBox="0 0 1460 1460" fill="none" xmlns="http://www.w3.org/2000/svg">
<path d="M1430 740.831C1424.09 925.645 1347.75 1100.88 1217.12 1229.49C1086.49 1358.1 911.805 1430 730 1430C548.195 1430 373.514 1358.1 242.884 1229.49C112.254 1100.88 35.9133 925.645 30 740.831C30 559.166 233.07 686.557 233.07 388.807C233.07 91.0576 421.318 30 734.076 30C918.798 31.1925 1095.58 106.562 1225.92 239.696C1356.26 372.831 1429.61 552.949 1430 740.831V740.831Z" stroke="#50C4CD" stroke-width="60" stroke-miterlimit="10"/>
<path d="M547.302 599.059H821.521C836.18 599.059 850.509 594.638 862.696 586.355C874.884 578.073 884.384 566.3 889.993 552.526C895.603 538.752 897.07 523.596 894.211 508.974C891.351 494.351 884.292 480.92 873.927 470.378C863.562 459.836 850.357 452.657 835.98 449.748C821.604 446.84 806.702 448.332 793.159 454.038C779.617 459.743 768.042 469.405 759.898 481.801C751.755 494.197 747.408 508.771 747.408 523.679H686.635C686.928 496.431 695.15 469.881 710.263 447.379C725.375 424.878 746.702 407.433 771.552 397.246C796.402 387.059 823.662 384.586 849.892 390.139C876.123 395.692 900.148 409.022 918.938 428.448C937.728 447.874 950.44 472.525 955.47 499.29C960.5 526.056 957.623 553.738 947.202 578.842C936.781 603.947 919.283 625.35 896.916 640.351C874.548 655.352 848.313 663.279 821.521 663.132H542.855C531.988 663.327 521.266 665.711 511.309 670.145C501.353 674.579 492.359 680.977 484.847 688.967C477.336 696.957 471.455 706.382 467.546 716.698C463.637 727.013 461.776 738.014 462.072 749.065C462.846 771.392 472.213 792.517 488.156 807.886C504.099 823.255 525.34 831.638 547.302 831.229H600.664C586.827 839.262 574.114 849.15 562.866 860.627L539.891 887.764C522.094 888.07 504.419 884.73 487.918 877.944C471.417 871.158 456.427 861.064 443.842 848.263C431.256 835.462 421.331 820.216 414.659 803.433C407.987 786.65 404.704 768.673 405.005 750.572C403.29 730.852 405.746 710.986 412.208 692.311C418.67 673.636 428.988 656.585 442.469 642.303C455.949 628.021 472.279 616.84 490.361 609.511C508.443 602.182 527.859 598.875 547.302 599.813" fill="#50C4CD"/>
<path d="M956.414 884.794C975.828 885.746 995.217 882.443 1013.27 875.108C1031.32 867.773 1047.6 856.577 1061.03 842.281C1074.45 827.984 1084.7 810.919 1091.07 792.243C1097.45 773.567 1099.8 753.716 1097.97 734.035C1098.65 704.165 1089.44 674.93 1071.84 651.012C1054.24 627.094 1029.25 609.877 1000.88 602.12C996.865 611.419 991.896 620.262 986.059 628.503C977.892 638.707 967.815 647.162 956.414 653.378C967.787 653.067 979.103 655.116 989.672 659.4C1000.24 663.684 1009.84 670.113 1017.89 678.296C1025.93 686.478 1032.25 696.242 1036.46 706.992C1040.68 717.741 1042.69 729.251 1042.39 740.819C1042.58 751.906 1040.63 762.924 1036.64 773.244C1032.65 783.563 1026.7 792.982 1019.13 800.962C1011.55 808.942 1002.51 815.327 992.515 819.752C982.518 824.177 971.762 826.555 960.861 826.752H682.195C655.466 826.755 629.333 834.792 607.08 849.852C584.827 864.912 567.445 886.324 557.118 911.398C546.791 936.473 543.978 964.092 549.034 990.788C554.089 1017.48 566.787 1042.06 585.533 1061.44C604.279 1080.82 628.237 1094.13 654.398 1099.71C680.559 1105.28 707.757 1102.87 732.575 1092.78C757.393 1082.68 778.725 1065.36 793.892 1042.97C809.058 1020.58 817.384 994.14 817.822 966.958H757.049C757.049 986.95 749.241 1006.12 735.342 1020.26C721.443 1034.4 702.592 1042.34 682.936 1042.34C663.28 1042.34 644.429 1034.4 630.53 1020.26C616.631 1006.12 608.822 986.95 608.822 966.958C608.822 946.966 616.631 927.793 630.53 913.656C644.429 899.52 663.28 891.578 682.936 891.578H956.414" fill="#50C4CD"/>
</svg>
